<svg width="390" height="454" viewBox="0 0 390 454" fill="none" xmlns="http://www.w3.org/2000/svg">
<path d="M292.6 169.642L282.005 170.331C273.113 171.201 264.272 172.527 255.517 174.304L251.332 175.204C240.119 177.595 228.782 179.363 217.374 180.502C215.838 180.502 206.779 181.297 200.475 181.403C206.408 181.403 212.977 180.661 214.302 180.555C225.71 179.416 237.046 177.648 248.259 175.257L252.444 174.357C261.2 172.58 270.041 171.254 278.932 170.384C282.64 170.119 288.839 169.695 292.6 169.642Z" fill="#E2E1DD"/>
<path d="M517.429 -7.19114C519.098 -5.59892 520.249 -3.54142 520.733 -1.28612C521.218 0.969182 521.012 3.31796 520.144 5.4549C519.275 7.59183 517.784 9.41809 515.864 10.6962C513.943 11.9744 511.683 12.6453 509.377 12.6218H469.645C459.888 12.6114 450.388 9.49415 442.521 3.72186C392.035 -33.3612 297.421 -94.0184 209.428 -102.23C205.773 -102.547 199.257 -102.971 195.813 -103.024H195.177C194.189 -103.074 193.199 -103.074 192.211 -103.024C129.276 -99.9517 79.0546 -49.3069 79.0546 12.4629C79.0546 76.0337 132.56 128.162 198.356 128.162C201.799 128.162 208.951 127.685 213.083 127.42C221.653 126.604 230.176 125.349 238.618 123.659L245.187 122.388C255.931 120.164 266.79 118.537 277.714 117.514C279.197 117.514 287.514 116.772 293.606 116.613H296.679C321.426 116.574 345.898 121.811 368.461 131.976C398.235 145.104 423.578 166.561 441.437 193.762C459.295 220.964 468.908 252.749 469.115 285.288C469.115 377.625 392.936 452.797 298.904 453.91H293.606C287.09 453.91 276.124 453.062 274.906 452.956C130.282 439.553 -18.7386 310.769 -24.9897 305.26C-25.9922 304.355 -26.9303 303.381 -27.7975 302.346C-28.9907 300.798 -29.7322 298.949 -29.94 297.005C-30.1478 295.061 -29.8136 293.098 -28.9746 291.332C-28.1356 289.566 -26.8244 288.067 -25.1862 287C-23.5479 285.934 -21.6464 285.341 -19.6922 285.288H22.6884C32.389 285.348 41.8171 288.503 49.6001 294.294C100.086 331.377 194.701 392.087 282.693 400.245C286.402 400.563 293.289 400.987 296.52 401.04H300.016C363.111 397.702 413.332 347.27 413.332 285.288C413.332 221.717 359.826 169.589 294.03 169.589H292.6C288.839 169.589 282.64 170.066 279.144 170.331C270.253 171.201 261.412 172.527 252.656 174.304L248.471 175.204C237.258 177.595 225.922 179.363 214.514 180.502C213.189 180.502 206.62 181.085 200.687 181.35H195.389C170.554 181.415 145.991 176.178 123.342 165.987C93.5681 152.859 68.225 131.402 50.3664 104.2C32.5079 76.999 22.8959 45.2139 22.6884 12.6748C22.6884 -79.609 99.0265 -154.835 193.058 -156H198.356C204.819 -156 215.838 -155.152 217.056 -155.046C361.733 -141.644 510.966 -12.9655 517.27 -7.35008L517.429 -7.19114Z" fill="#E2E1DD"/>
<path d="M294.03 116.613C287.673 116.613 279.356 117.408 278.138 117.514C267.214 118.537 256.355 120.164 245.611 122.388L238.883 123.818C230.441 125.508 221.918 126.763 213.348 127.579C209.428 127.579 202.064 128.321 198.621 128.321C202.382 128.321 207.309 127.844 210.276 127.632C218.846 126.816 227.369 125.561 235.81 123.871L242.538 122.441C253.282 120.218 264.141 118.591 275.065 117.567C276.548 117.461 287.567 116.613 294.03 116.613Z" fill="#E2E1DD"/>
<path d="M198.356 52.6186C220.446 52.6186 238.353 34.7114 238.353 12.6219C238.353 -9.46769 220.446 -27.3748 198.356 -27.3748C176.267 -27.3748 158.359 -9.46769 158.359 12.6219C158.359 34.7114 176.267 52.6186 198.356 52.6186Z" fill="#E2E1DD"/>
<path d="M296.361 326.874C318.451 326.874 336.358 308.967 336.358 286.877C336.358 264.788 318.451 246.881 296.361 246.881C274.272 246.881 256.365 264.788 256.365 286.877C256.365 308.967 274.272 326.874 296.361 326.874Z" fill="#E2E1DD"/>
</svg>
